<svg xmlns="http://www.w3.org/2000/svg" width="236.76" height="69.63" viewBox="0 0 236.76 69.63"><title>Artboard 1</title><polygon points="200.57 0 37.67 0 37.67 56.31 107.29 56.31 106.54 57.06 119.11 69.63 131.7 57.04 130.97 56.31 200.57 56.31 200.57 0" fill="#010101"/><rect width="236.76" height="56.51" fill="#010101"/><path d="M28.25,26.41a1.45,1.45,0,0,0-1.25-1,.82.82,0,0,0-.87.83c0,.57.62,1,1.36,1.34,1.09.48,2.52,1.15,2.51,2.72a2.66,2.66,0,0,1-2.9,2.82,3.08,3.08,0,0,1-2-.72A3.17,3.17,0,0,1,24,30.62l1.36-.85c.35,1.23.94,1.84,1.8,1.84a1,1,0,0,0,1.18-1.18c0-.53-.58-.94-1.34-1.27-1.07-.45-2.47-1.14-2.44-2.81A2.41,2.41,0,0,1,27,23.9a2.67,2.67,0,0,1,2.61,1.64Z" fill="#fff"/><path d="M46.1,29.51v3.54H44.42V24h3.41a2.56,2.56,0,0,1,2.83,2.75,2.56,2.56,0,0,1-2.83,2.75ZM47.77,28A1.06,1.06,0,0,0,49,26.76a1.06,1.06,0,0,0-1.19-1.2H46.1V28Z" fill="#fff"/><path d="M66.81,24v9.05H65.13V24Z" fill="#fff"/><path d="M86.69,24h1.68v9.05H86.6l-3.32-6v6H81.59V24h1.77l3.32,6Z" fill="#fff"/><path d="M108.53,33.06l-.66-2.13H105l-.66,2.13h-1.81L105.59,24h1.68l3.06,9.05Zm-2.09-6.83-1,3.14h1.91Z" fill="#fff"/><path d="M128.94,24.13h3.3a2.29,2.29,0,0,1,2.58,2.44,1.81,1.81,0,0,1-.89,1.66,2.16,2.16,0,0,1,1.35,2.21c0,1.74-1.12,2.72-3,2.72h-3.37Zm1.68,1.55v2h1.53c.71,0,1.06-.27,1.06-1s-.36-1-1.1-1Zm0,3.51v2.42h1.53c1,0,1.46-.4,1.46-1.21s-.49-1.21-1.46-1.21Z" fill="#fff"/><path d="M154,29.12l2.5,4h-1.87l-2.42-3.89h-.88v3.89h-1.68v-9h3.29a2.46,2.46,0,0,1,2.75,2.57A2.35,2.35,0,0,1,154,29.12Zm-1-1.41c.71,0,1.06-.33,1.06-1s-.35-1-1.06-1h-1.62v2Z" fill="#fff"/><path d="M172.26,24.13v9h-1.68v-9Z" fill="#fff"/><path d="M187,33.16v-9h2.82c2.13,0,4.2,1.37,4.2,4.51s-2.08,4.51-4.2,4.51Zm1.68-1.55h.62a3.43,3.43,0,0,0,2-.58,2.73,2.73,0,0,0,1-2.38,2.73,2.73,0,0,0-1-2.39,3.44,3.44,0,0,0-2-.58h-.62Z" fill="#fff"/><path d="M208.44,24.13H214v1.55h-3.91v1.9h3.13v1.55h-3.13v2.49h4v1.55h-5.71Z" fill="#fff"/></svg>