<?xml version="1.0" encoding="utf-8"?>
<!-- Generator: Adobe Illustrator 18.0.0, SVG Export Plug-In . SVG Version: 6.00 Build 0)  -->
<!DOCTYPE svg PUBLIC "-//W3C//DTD SVG 1.1//EN" "http://www.w3.org/Graphics/SVG/1.1/DTD/svg11.dtd">
<svg version="1.1" id="Layer_1" xmlns="http://www.w3.org/2000/svg" xmlns:xlink="http://www.w3.org/1999/xlink" x="0px" y="0px"
	 width="163px" height="69px" viewBox="0 0 163 69" enable-background="new 0 0 163 69" xml:space="preserve">
<polygon fill="#FFFFFF" points="163,0 0,0 0,56 69.1,56 70,56 82.1,69 94.7,56 163,56 "/>
<g>
	<path d="M46.7,26.4c-0.3-0.6-0.7-0.9-1.2-0.9c-0.5,0-0.9,0.3-0.9,0.8c0,0.6,0.6,1,1.3,1.3c1.1,0.5,2.5,1.1,2.5,2.7
		c0,1.7-1.1,2.8-2.9,2.8c-0.8,0-1.5-0.2-2-0.7c-0.6-0.5-0.9-1.1-1.1-1.8l1.3-0.8c0.3,1.2,0.9,1.8,1.8,1.8c0.8,0,1.2-0.4,1.2-1.2
		c0-0.5-0.6-0.9-1.3-1.3C44.4,28.7,43,28,43,26.4c0-0.7,0.2-1.3,0.7-1.7c0.5-0.5,1-0.7,1.7-0.7c1.2,0,2.1,0.5,2.6,1.6L46.7,26.4z"/>
	<path d="M64.3,29.5V33h-1.7V24H66c1.8,0,2.8,1.1,2.8,2.7s-1,2.7-2.8,2.7H64.3z M66,28c0.8,0,1.2-0.4,1.2-1.2c0-0.8-0.4-1.2-1.2-1.2
		h-1.6V28H66z"/>
	<path d="M84.8,24V33h-1.7V24H84.8z"/>
	<path d="M104.4,24h1.7V33h-1.8l-3.3-5.9V33h-1.7V24h1.8l3.3,5.9V24z"/>
	<path d="M126,33l-0.7-2.1h-2.8l-0.7,2.1h-1.8l3-8.9h1.7l3,8.9H126z M123.9,26.2l-0.9,3.1h1.9L123.9,26.2z"/>
</g>
</svg>
