<?xml version="1.0" encoding="UTF-8"?><!DOCTYPE svg PUBLIC "-//W3C//DTD SVG 1.1 Tiny//EN" "http://www.w3.org/Graphics/SVG/1.1/DTD/svg11-tiny.dtd"><svg baseProfile="tiny" xmlns="http://www.w3.org/2000/svg" width="515" height="69" preserveAspectRatio="xMaxYMax meet" viewBox="0 0 515 69"><g id="arrow-down" transform="translate(0,0)"><path stroke="#fff" stroke-miterlimit="10" fill="none" d="M.9.4l10.9 11.7L22 .4"/></g><g id="arrow-down-gray" transform="translate(30,0)"><path stroke="#3D3D3D" stroke-miterlimit="10" fill="none" d="M.3.3L11.2 12 21.4.3"/></g><g id="close" transform="translate(60,0)"><path stroke="#ccc" stroke-miterlimit="10" fill="none" d="M.3.6l12.9 12.9M13.2.6L.3 13.5"/></g><g id="close-black" transform="translate(80,0)"><path stroke="#000" stroke-miterlimit="10" fill="none" d="M.3.6l12.9 12.9M13.2.6L.3 13.5"/></g><g id="facebook" transform="translate(100,0)"><path fill="#fff" d="M7.4 18H3.9V9.5H2.2V6.6h1.7V4.9c0-2.4 1-3.8 3.8-3.8H10V4H8.6c-1.1 0-1.2.4-1.2 1.2v1.5H10l-.2 2.8H7.4V18z"/></g><g id="logo-dark" transform="translate(120,0)"><path d="M6.3 3.7c-.5-.9-1.1-1.4-1.8-1.4s-1.3.5-1.3 1.2c0 .8.9 1.5 2 2 1.6.7 3.7 1.7 3.7 4 0 2.6-1.7 4.2-4.3 4.2-1.2 0-2.2-.4-3-1.1C.7 11.9.2 11 0 10l2-1.3c.5 1.8 1.4 2.7 2.7 2.7 1.2 0 1.7-.6 1.7-1.7 0-.8-.9-1.4-2-1.9C2.8 7.1.8 6.1.8 3.6c0-1 .3-1.9 1-2.6.7-.7 1.6-1 2.7-1 1.8 0 3.1.8 3.9 2.4L6.3 3.7zM32.7 8.3v5.2h-2.5V.2h5.1c2.7 0 4.2 1.6 4.2 4.1s-1.5 4-4.2 4h-2.6zM35.2 6c1.2 0 1.8-.6 1.8-1.8 0-1.2-.6-1.8-1.8-1.8h-2.5V6h2.5zM63.4.2v13.4h-2.5V.2h2.5zM92.8.2h2.5v13.4h-2.6l-4.9-8.8v8.8h-2.5V.2h2.6L92.8 9V.2zM125.1 13.5l-1-3.2h-4.2l-1 3.2h-2.7L120.7.1h2.5l4.5 13.4h-2.6zM122 3.4L120.6 8h2.8L122 3.4z"/></g><g id="logo-map" transform="translate(255,0)"><path fill="#fff" d="M163 0H0v56h70l12.1 13 12.6-13H163z"/><path d="M46.7 26.4c-.3-.6-.7-.9-1.2-.9s-.9.3-.9.8c0 .6.6 1 1.3 1.3 1.1.5 2.5 1.1 2.5 2.7 0 1.7-1.1 2.8-2.9 2.8-.8 0-1.5-.2-2-.7-.6-.5-.9-1.1-1.1-1.8l1.3-.8c.3 1.2.9 1.8 1.8 1.8.8 0 1.2-.4 1.2-1.2 0-.5-.6-.9-1.3-1.3-1-.4-2.4-1.1-2.4-2.7 0-.7.2-1.3.7-1.7.5-.5 1-.7 1.7-.7 1.2 0 2.1.5 2.6 1.6l-1.3.8zM64.3 29.5V33h-1.7v-9H66c1.8 0 2.8 1.1 2.8 2.7s-1 2.7-2.8 2.7h-1.7zM66 28c.8 0 1.2-.4 1.2-1.2 0-.8-.4-1.2-1.2-1.2h-1.6V28H66zM84.8 24v9h-1.7v-9h1.7zM104.4 24h1.7v9h-1.8l-3.3-5.9V33h-1.7v-9h1.8l3.3 5.9V24zM126 33l-.7-2.1h-2.8l-.7 2.1H120l3-8.9h1.7l3 8.9H126zm-2.1-6.8l-.9 3.1h1.9l-1-3.1z"/></g><g id="mail" transform="translate(425,0)" fill="#fff"><path d="M23.6.5L12.3 11.8 1 .5v15.9h22.7V.5zM12.3 10.1L21.9.5H2.7z"/></g><g id="pinterest" transform="translate(460,0)"><path fill="#fff" d="M9.4.1C4.7.1 1 3.9 1 8.5.9 12 3 15 6 16.3c0-.6 0-1.3.1-1.9.2-.7 1.1-4.6 1.1-4.6s-.3-.6-.3-1.4c0-1.3.7-2.2 1.6-2.2.8 0 1.1.6 1.1 1.3 0 .8-.5 1.9-.7 3-.2.9.4 1.6 1.3 1.6 1.6 0 2.7-2.1 2.7-4.5 0-1.9-1.2-3.2-3.5-3.2-2.6 0-4.2 1.9-4.2 4 0 .7.2 1.3.6 1.7.2.2.2.2.2.5 0 .2-.1.5-.2.7-.1.2-.2.3-.4.2-1.2-.5-1.7-1.8-1.7-3.3 0-2.4 2-5.3 6-5.3 3.2 0 5.3 2.3 5.3 4.8 0 3.3-1.8 5.8-4.6 5.8-.9 0-1.8-.5-2.1-1.1 0 0-.5 1.9-.6 2.3-.2.7-.5 1.3-.8 1.8.8.4 1.6.5 2.5.5 4.7 0 8.4-3.8 8.4-8.4S14 .1 9.4.1z"/></g><g id="twitter" transform="translate(485,0)"><path fill="#fff" d="M20.5 2.8c-.7.3-1.4.5-2.1.6.8-.5 1.4-1.2 1.6-2.1-.7.4-1.5.7-2.4.9-.7-.7-1.7-1.2-2.7-1.2-2.1 0-3.7 1.7-3.7 3.7 0 .3 0 .6.1.9C8.1 5.5 5.4 4 3.5 1.7c-.3.6-.5 1.2-.5 1.9 0 1.3.7 2.4 1.7 3.1-.6 0-1.2-.2-1.7-.5C3 8.1 4.3 9.6 6 10c-.3.1-.6.1-1 .1-.2 0-.5 0-.7-.1.5 1.5 1.9 2.6 3.5 2.6-1.3 1-2.9 1.6-4.6 1.6-.3 0-.6 0-.9-.1C4 15.2 5.9 15.8 8 15.8c6.9 0 10.6-5.7 10.6-10.6v-.5c.7-.5 1.4-1.2 1.9-1.9z"/></g></svg>
